<mxfile host="www.draw.io" modified="2020-01-17T09:32:22.175Z" agent="Mozilla/5.0 (Macintosh; Intel Mac OS X 10_15_2) AppleWebKit/537.36 (KHTML, like Gecko) Chrome/79.0.3945.88 Safari/537.36" etag="-ETS40WVB1Jzg5D_k7MX" version="12.5.5" type="github">
  <diagram id="zmymuPuCRA90sSjGcWVc" name="第 1 页">
    <mxGraphModel dx="909" dy="542" grid="1" gridSize="10" guides="1" tooltips="1" connect="1" arrows="1" fold="1" page="1" pageScale="1" pageWidth="827" pageHeight="1169" math="0" shadow="0">
      <root>
        <mxCell id="0"/>
        <mxCell id="1" parent="0"/>
        <mxCell id="zbDv7zDLH7h7_JeVAdqf-7" value="" style="edgeStyle=orthogonalEdgeStyle;rounded=0;orthogonalLoop=1;jettySize=auto;html=1;" parent="1" source="zbDv7zDLH7h7_JeVAdqf-2" edge="1">
          <mxGeometry relative="1" as="geometry">
            <mxPoint x="460" y="230" as="targetPoint"/>
          </mxGeometry>
        </mxCell>
        <mxCell id="zbDv7zDLH7h7_JeVAdqf-2" value="Vector" style="shape=cylinder;whiteSpace=wrap;html=1;boundedLbl=1;backgroundOutline=1;fillColor=#dae8fc;strokeColor=#6c8ebf;" parent="1" vertex="1">
          <mxGeometry x="260" y="190" width="121" height="80" as="geometry"/>
        </mxCell>
        <mxCell id="zbDv7zDLH7h7_JeVAdqf-23" value="" style="edgeStyle=orthogonalEdgeStyle;rounded=0;orthogonalLoop=1;jettySize=auto;html=1;" parent="1" source="zbDv7zDLH7h7_JeVAdqf-10" edge="1">
          <mxGeometry relative="1" as="geometry">
            <mxPoint x="661" y="230" as="targetPoint"/>
          </mxGeometry>
        </mxCell>
        <mxCell id="zbDv7zDLH7h7_JeVAdqf-10" value="CloudML" style="rounded=0;whiteSpace=wrap;html=1;" parent="1" vertex="1">
          <mxGeometry x="460" y="200" width="121" height="60" as="geometry"/>
        </mxCell>
        <mxCell id="zbDv7zDLH7h7_JeVAdqf-19" value="Python Serving" style="rounded=0;whiteSpace=wrap;html=1;fillColor=#e51400;strokeColor=#B20000;fontColor=#ffffff;" parent="1" vertex="1">
          <mxGeometry x="670" y="350" width="121" height="60" as="geometry"/>
        </mxCell>
        <mxCell id="zbDv7zDLH7h7_JeVAdqf-18" style="edgeStyle=orthogonalEdgeStyle;rounded=0;orthogonalLoop=1;jettySize=auto;html=1;exitX=1;exitY=0.5;exitDx=0;exitDy=0;entryX=0;entryY=0.5;entryDx=0;entryDy=0;" parent="1" source="zbDv7zDLH7h7_JeVAdqf-15" target="zbDv7zDLH7h7_JeVAdqf-2" edge="1">
          <mxGeometry relative="1" as="geometry"/>
        </mxCell>
        <mxCell id="zbDv7zDLH7h7_JeVAdqf-15" value="Spark Job" style="rounded=0;whiteSpace=wrap;html=1;" parent="1" vertex="1">
          <mxGeometry x="60" y="200" width="120" height="60" as="geometry"/>
        </mxCell>
        <mxCell id="zbDv7zDLH7h7_JeVAdqf-28" value="" style="edgeStyle=orthogonalEdgeStyle;rounded=0;orthogonalLoop=1;jettySize=auto;html=1;" parent="1" source="zbDv7zDLH7h7_JeVAdqf-26" edge="1">
          <mxGeometry relative="1" as="geometry">
            <mxPoint x="730.5" y="350" as="targetPoint"/>
          </mxGeometry>
        </mxCell>
        <mxCell id="zbDv7zDLH7h7_JeVAdqf-29" value="热加载" style="text;html=1;align=center;verticalAlign=middle;resizable=0;points=[];labelBackgroundColor=#ffffff;" parent="zbDv7zDLH7h7_JeVAdqf-28" vertex="1" connectable="0">
          <mxGeometry x="-0.125" relative="1" as="geometry">
            <mxPoint as="offset"/>
          </mxGeometry>
        </mxCell>
        <mxCell id="zbDv7zDLH7h7_JeVAdqf-26" value="Index" style="shape=cylinder;whiteSpace=wrap;html=1;boundedLbl=1;backgroundOutline=1;fillColor=#dae8fc;strokeColor=#6c8ebf;" parent="1" vertex="1">
          <mxGeometry x="670" y="190" width="121" height="80" as="geometry"/>
        </mxCell>
      </root>
    </mxGraphModel>
  </diagram>
</mxfile>
